# xmcd
#
# Track frame offsets:
#	150
#	10537
#	23815
#	38660
#	49877
#	66510
#	77100
#	92004
#	103645
#	116265
#
# Disc length: 1702 seconds
#
# Revision: 0
# Processed by: cddbd v1.5PL3 Copyright (c) Steve Scherf et al.
# Submitted via: dBpowerAMP V4.0
#
DISCID=7206a40a
DTITLE=Connie Smith - By Request
DYEAR=1900
DGENRE=
TTITLE0=If It Ain't Love
TTITLE1=Did We Have To Come This Far
TTITLE2=You've Got Me Right Where You Want Me
TTITLE3=Keys In The Mailbox
TTITLE4=Walk Me To The Door
TTITLE5=Just One Time
TTITLE6=Deepening Snow
TTITLE7=Tiny Blue Transistor Radio
TTITLE8=I Never Once Stopped Lovin' You
TTITLE9=Once A Day
EXTD=
EXTT0=
EXTT1=
EXTT2=
EXTT3=
EXTT4=
EXTT5=
EXTT6=
EXTT7=
EXTT8=
EXTT9=
PLAYORDER=
